<svg xmlns="http://www.w3.org/2000/svg" viewBox="0 0 360 220" fill="none">
  <rect width="360" height="220" fill="#faf8f4"/>
  <rect x="40" y="50" width="280" height="120" rx="6" fill="#f0ece4" stroke="#6b6058" stroke-width="1.5"/>
  <g fill="#faf8f4" stroke="#6b6058" stroke-width="1">
    <rect x="55" y="65" width="24" height="90" rx="2"/>
    <rect x="83" y="65" width="24" height="90" rx="2"/>
    <rect x="111" y="65" width="24" height="90" rx="2"/>
    <rect x="139" y="65" width="24" height="90" rx="2"/>
    <rect x="167" y="65" width="24" height="90" rx="2"/>
    <rect x="195" y="65" width="24" height="90" rx="2"/>
    <rect x="223" y="65" width="24" height="90" rx="2"/>
    <rect x="251" y="65" width="24" height="90" rx="2"/>
    <rect x="279" y="65" width="24" height="90" rx="2"/>
  </g>
  <g fill="#2a2522">
    <rect x="72" y="65" width="14" height="55" rx="1.5"/>
    <rect x="100" y="65" width="14" height="55" rx="1.5"/>
    <rect x="156" y="65" width="14" height="55" rx="1.5"/>
    <rect x="184" y="65" width="14" height="55" rx="1.5"/>
    <rect x="212" y="65" width="14" height="55" rx="1.5"/>
    <rect x="268" y="65" width="14" height="55" rx="1.5"/>
    <rect x="296" y="65" width="14" height="55" rx="1.5"/>
  </g>
</svg>
